<svg xmlns="http://www.w3.org/2000/svg" viewBox="0 0 768 479"><defs><style>.cls-1,.cls-14,.cls-22{fill:none;stroke-miterlimit:10;}.cls-1{stroke:#4e4c4c;}.cls-1,.cls-22{stroke-width:2px;}.cls-2{fill:#4e4c4c;}.cls-3{fill:#fff;}.cls-4{font-size:12.58px;fill:#231f20;font-family:Ubuntu, Ubuntu;}.cls-5{letter-spacing:-0.01em;}.cls-6{letter-spacing:-0.05em;}.cls-7{letter-spacing:-0.01em;}.cls-8{letter-spacing:0.01em;}.cls-9{letter-spacing:-0.01em;}.cls-10{letter-spacing:-0.02em;}.cls-11{letter-spacing:-0.01em;}.cls-12{letter-spacing:-0.01em;}.cls-13{letter-spacing:0em;}.cls-14{stroke:#231f20;}.cls-15{letter-spacing:-0.01em;}.cls-16{letter-spacing:-0.02em;}.cls-17{letter-spacing:-0.01em;}.cls-18{letter-spacing:0em;}.cls-19{letter-spacing:-0.02em;}.cls-20{letter-spacing:-0.06em;}.cls-21{letter-spacing:-0.02em;}.cls-22{stroke:#4dba6f;}.cls-23,.cls-24{fill:#4dba6f;}.cls-24,.cls-25{font-size:14.73px;font-family:MuseoSlab-700, Museo Slab;}.cls-25{fill:#f3716b;}.cls-26{letter-spacing:-0.01em;}</style></defs><title>faq_diagram</title><g id="Layer_2" data-name="Layer 2"><g id="Layer_1-2" data-name="Layer 1"><polyline class="cls-1" points="342 67 569 67 569 145.97"/><path class="cls-2" d="M569,152a30.22,30.22,0,0,0-4.76-8.55l4.76,1.72,4.75-1.72A30.19,30.19,0,0,0,569,152Z"/><rect class="cls-3" x="551" y="99" width="34" height="21"/><text class="cls-4" transform="translate(6.24 48.18)">Buyer shall <tspan class="cls-5" x="65.47" y="0">c</tspan><tspan x="71.16" y="0">onfirm bel</tspan><tspan class="cls-5" x="130.34" y="0">o</tspan><tspan x="137.6" y="0">w details in quotation:</tspan><tspan x="0" y="15.09">1. Product specifications (</tspan><tspan class="cls-5" x="146.49" y="15.09">c</tspan><tspan x="152.17" y="15.09">olo</tspan><tspan class="cls-6" x="170.45" y="15.09">r</tspan><tspan x="174.61" y="15.09">, packaging, laser logo, e</tspan><tspan class="cls-7" x="313.46" y="15.09">t</tspan><tspan class="cls-8" x="318.36" y="15.09">c</tspan><tspan x="324.33" y="15.09">.)</tspan><tspan x="0" y="30.18">2. </tspan><tspan class="cls-9" x="13.09" y="30.18">L</tspan><tspan x="19.47" y="30.18">ead time</tspan><tspan x="0" y="45.28">3. </tspan><tspan class="cls-10" x="13.09" y="45.28">P</tspan><tspan class="cls-11" x="20.5" y="45.28">a</tspan><tspan x="26.88" y="45.28">yment </tspan><tspan class="cls-12" x="66.16" y="45.28">t</tspan><tspan class="cls-13" x="71.09" y="45.28">erm</tspan></text><rect class="cls-14" x="0.5" y="28.5" width="342" height="77"/><text class="cls-4" transform="translate(6.24 175.05)">Buyer pr<tspan class="cls-15" x="48.61" y="0">o</tspan><tspan x="55.85" y="0">vides Purchase Order </tspan><tspan class="cls-15" x="179.99" y="0">t</tspan><tspan x="184.87" y="0">o Buffalo.</tspan></text><rect class="cls-14" x="0.5" y="158.5" width="342" height="24"/><text class="cls-4" transform="translate(403.97 175.02)">Buyer advises about a<tspan class="cls-16" x="124.1" y="0">n</tspan><tspan class="cls-13" x="131.1" y="0">y changes </tspan><tspan class="cls-15" x="189.88" y="0">t</tspan><tspan x="194.76" y="0">o Buffalo.</tspan></text><rect class="cls-14" x="398.5" y="158.5" width="342" height="24"/><text class="cls-4" transform="translate(403.97 253.22)">Buffalo pr<tspan class="cls-15" x="57.65" y="0">o</tspan><tspan x="64.89" y="0">vides the revised quotation </tspan><tspan class="cls-17" x="223.29" y="0">t</tspan><tspan class="cls-18" x="228.17" y="0">o buye</tspan><tspan class="cls-6" x="266.41" y="0">r</tspan><tspan x="270.57" y="0">.</tspan></text><rect class="cls-14" x="398.5" y="236.5" width="342" height="24"/><text class="cls-4" transform="translate(6.24 252.15)">Buffalo <tspan class="cls-5" x="45.39" y="0">c</tspan><tspan x="51.07" y="0">onfirms, signs Purchase Order and pr</tspan><tspan class="cls-15" x="260.94" y="0">o</tspan><tspan x="268.18" y="0">vides </tspan><tspan x="0" y="15.09">Proforma I</tspan><tspan class="cls-19" x="60.73" y="15.09">n</tspan><tspan class="cls-15" x="67.75" y="15.09">v</tspan><tspan x="73.89" y="15.09">oice </tspan><tspan class="cls-15" x="100.27" y="15.09">t</tspan><tspan x="105.15" y="15.09">o Selle</tspan><tspan class="cls-20" x="143.09" y="15.09">r</tspan><tspan x="147.26" y="15.09">.</tspan></text><rect class="cls-14" x="0.5" y="236.5" width="342" height="38"/><text class="cls-4" transform="translate(6.24 345.41)">Buyer <tspan class="cls-5" x="36.35" y="0">c</tspan><tspan x="42.03" y="0">onfirms, signs Purchase Order and sends back </tspan><tspan class="cls-15" x="304.7" y="0">t</tspan><tspan x="309.58" y="0">o </tspan><tspan x="0" y="15.09">Buffalo and remits the deposit </tspan><tspan class="cls-15" x="177.14" y="15.09">t</tspan><tspan x="182.02" y="15.09">o Buffalo </tspan><tspan class="cls-15" x="237.73" y="15.09">t</tspan><tspan x="242.61" y="15.09">o proceed </tspan><tspan x="0" y="30.18">further production schedule.</tspan></text><rect class="cls-14" x="0.5" y="327.5" width="342" height="55"/><text class="cls-4" transform="translate(6.24 454.51)">Buffalo <tspan class="cls-5" x="45.39" y="0">c</tspan><tspan x="51.07" y="0">onfirms signed Purchase Orde</tspan><tspan class="cls-6" x="222.55" y="0">r</tspan><tspan x="226.72" y="0">, p</tspan><tspan class="cls-21" x="240.12" y="0">a</tspan><tspan x="246.5" y="0">yment and </tspan><tspan x="0" y="15.09">arranges the production schedule.</tspan></text><rect class="cls-14" x="0.5" y="436.5" width="342" height="42"/><line class="cls-22" x1="171" y1="131" x2="171" y2="148.96"/><path class="cls-23" d="M171,155a30.22,30.22,0,0,0-4.76-8.55l4.76,1.72,4.75-1.72A30.19,30.19,0,0,0,171,155Z"/><text class="cls-24" transform="translate(157.34 124.16)">YES</text><line class="cls-22" x1="569" y1="208" x2="569" y2="226.96"/><path class="cls-23" d="M569,233a30.22,30.22,0,0,0-4.76-8.55l4.76,1.72,4.75-1.72A30.19,30.19,0,0,0,569,233Z"/><text class="cls-24" transform="translate(555.07 201.52)">YES</text><polyline class="cls-22" points="569 285 569 309.81 569 335 767 335 767 1 174 1 174 14.96"/><path class="cls-23" d="M174,21a30.22,30.22,0,0,0-4.76-8.55L174,14.17l4.75-1.72A30.19,30.19,0,0,0,174,21Z"/><text class="cls-24" transform="translate(555.07 278.59)">YES</text><text class="cls-25" transform="translate(556.78 115.4)"><tspan class="cls-26">N</tspan><tspan x="12.38" y="0">O</tspan></text><line class="cls-22" x1="171" y1="208" x2="171" y2="225.96"/><path class="cls-23" d="M171,232a30.22,30.22,0,0,0-4.76-8.55l4.76,1.72,4.75-1.72A30.19,30.19,0,0,0,171,232Z"/><text class="cls-24" transform="translate(157.34 201.22)">YES</text><line class="cls-22" x1="171" y1="301" x2="171" y2="318.96"/><path class="cls-23" d="M171,325a30.22,30.22,0,0,0-4.76-8.55l4.76,1.72,4.75-1.72A30.19,30.19,0,0,0,171,325Z"/><text class="cls-24" transform="translate(157.34 294.09)">YES</text><line class="cls-22" x1="171" y1="407" x2="171" y2="424.96"/><path class="cls-23" d="M171,431a30.22,30.22,0,0,0-4.76-8.55l4.76,1.72,4.75-1.72A30.19,30.19,0,0,0,171,431Z"/><text class="cls-24" transform="translate(157.34 400.05)">YES</text></g></g></svg>