<svg xmlns="http://www.w3.org/2000/svg" viewBox="0 0 627.83 96.79"><defs><style>.cls-1{fill:#4dba6f;}.cls-2{fill:#fff;}</style></defs><title>logo_horizontal</title><g id="Layer_2" data-name="Layer 2"><g id="Layer_1-2" data-name="Layer 1"><path class="cls-1" d="M71.94,96.79H59.23a3.56,3.56,0,0,1-3.56-3.56V73.45a.55.55,0,0,0-.55-.55H32a.54.54,0,0,0-.46.26l-5.79,9.27a.56.56,0,0,0-.08.29v10.5a3.56,3.56,0,0,1-3.56,3.56H9.42a3.56,3.56,0,0,1-3.56-3.56V65.66L0,28.92a4.29,4.29,0,0,1,2.84-4.69L73,.19a3.53,3.53,0,0,1,2-.1L93.89,4.5a3.62,3.62,0,0,1,2.48,1.76l7.44,13.35a3.56,3.56,0,0,1,0,3.47L97.55,34.31a.77.77,0,0,0,0,.75l6.26,11.24a3.57,3.57,0,0,1,0,3.46l-6.11,11L110,71.53a.52.52,0,0,0,.65,0l12.37-8.78a.54.54,0,0,0,.2-.28l7.6-23.22a.55.55,0,0,0-.06-.47l-8.52-13.33a3.28,3.28,0,0,1-.53-1.92V21a.78.78,0,0,0-1.38-.45l-5.3,7.06a1.71,1.71,0,0,0-.17,1.84,2.4,2.4,0,0,0,1.57,1.22h2.78c.18-.25.36-.16.46,0l3.87,6c.23.36-.46.57-.46.57h-6.43a9.09,9.09,0,0,1-7.71-4.1,8.84,8.84,0,0,1,.38-10.12L122.45,5.7a3.58,3.58,0,0,1,4.73-.9A3.67,3.67,0,0,1,128.87,8V22.25l9,14.1a3.56,3.56,0,0,1,.38,3l-8.65,26.38a3.56,3.56,0,0,1-1.32,1.8L112.18,79a3.57,3.57,0,0,1-4.41-.22L90.81,64A3.56,3.56,0,0,1,90,59.6l6.35-11.43a.78.78,0,0,0,0-.75L90.1,36.16a3.56,3.56,0,0,1,0-3.47l6.28-11.25a.77.77,0,0,0,0-.75L91,11.14a.78.78,0,0,0-.5-.38L74.46,7a.76.76,0,0,0-.43,0L8.33,29.56a1.4,1.4,0,0,0-.93,1.53l5,33.54,0,.53V88.61a.56.56,0,0,0,.56.56h5a.56.56,0,0,0,.56-.56V81.23a3.44,3.44,0,0,1,.55-1.87l7.7-11.94a3.56,3.56,0,0,1,3-1.63H59.23a3.56,3.56,0,0,1,3.56,3.56V88.61a.56.56,0,0,0,.56.56H68a.36.36,0,0,0,.36-.36V83.52a2.31,2.31,0,0,1,.31-1.16l8.56-14.76a3.56,3.56,0,0,1,2.3-1.69L84.06,65a.52.52,0,0,1,.45.12L90.08,70a.53.53,0,0,1-.23.91l-7,1.56a.55.55,0,0,0-.36.26l-6.93,12a.55.55,0,0,0-.07.28v8a3.56,3.56,0,0,1-3.56,3.56"/><path class="cls-2" d="M627.83,9v2.3q0,4.44-1.65,6.57T621,20h-6.3q-3.55,0-5.2-2.13t-1.65-6.57V9q0-9,6.85-9H621q6.85,0,6.85,9m-14,9h6.51q4.49,0,4.49-6.6V9.07q0-7.06-4.49-7.07h-6q-4.49,0-4.49,7.07V11.4q0,6.6,4.49,6.6m.51-15h4q2,0,2,1.83V9.2a1.54,1.54,0,0,1-1.31,1.74l2,5.05h-2l-1.94-5h-.75v5h-2Zm4,6V5.39c0-.26-.12-.39-.37-.39h-1.63V9h1.63q.37,0,.37-.33"/><path class="cls-2" d="M156.83,2.6a1.6,1.6,0,0,1,1.6-1.6H196q18.84,0,18.84,16.43V34.16q0,11.06-6.68,13.89,6.67,2.54,6.68,12.85V79.42Q214.83,96,196,96H158.43a1.61,1.61,0,0,1-1.61-1.61Zm37,34.4V19.7q0-3.7-4-3.7H179.43a1.6,1.6,0,0,0-1.6,1.6V39.39A1.61,1.61,0,0,0,179.43,41h10.43q4,0,4-3.7m0,40.7V59.61a3.69,3.69,0,0,0-.88-2.78,4.51,4.51,0,0,0-3.08-.83H179.43a1.61,1.61,0,0,0-1.61,1.61V80.39A1.61,1.61,0,0,0,179.43,82h10.43q4,0,4-3.76"/><path class="cls-2" d="M264.83,1H283.4a1.43,1.43,0,0,1,1.43,1.43v77q0,16.58-19,16.58H245.71q-18.88,0-18.88-16.58v-77A1.43,1.43,0,0,1,228.26,1H247.4a1.43,1.43,0,0,1,1.43,1.43V76.28q0,3.72,3.86,3.72h7.13q4,0,4-3.72V2.6a1.43,1.43,0,0,1,1.43-1.43"/><path class="cls-2" d="M347.83,17h-26.5a1.5,1.5,0,0,0-1.5,1.5v23a1.5,1.5,0,0,0,1.5,1.5h22a1.5,1.5,0,0,1,1.5,1.5v12a1.5,1.5,0,0,1-1.5,1.5h-22a1.5,1.5,0,0,0-1.5,1.5v35a1.5,1.5,0,0,1-1.5,1.5h-19a1.5,1.5,0,0,1-1.5-1.5V2.5a1.5,1.5,0,0,1,1.5-1.5h48a1.5,1.5,0,0,1,1.5,1.5V15.34a1.5,1.5,0,0,1-1.5,1.5"/><path class="cls-2" d="M407.83,17h-27.6a1.4,1.4,0,0,0-1.4,1.4V41.6a1.4,1.4,0,0,0,1.4,1.4h22.21a1.4,1.4,0,0,1,1.4,1.4V56.6a1.4,1.4,0,0,1-1.4,1.4H380.23a1.4,1.4,0,0,0-1.4,1.4V94.6a1.4,1.4,0,0,1-1.4,1.4H359.23a1.4,1.4,0,0,1-1.4-1.4V2.4a1.4,1.4,0,0,1,1.4-1.4h48.21a1.4,1.4,0,0,1,1.4,1.4v13a1.4,1.4,0,0,1-1.4,1.4"/><path class="cls-2" d="M455.53,95l-2.85-14.92A1.39,1.39,0,0,0,451.31,79H431.93a1.37,1.37,0,0,0-1.35,1.11l-2.83,14.77A1.37,1.37,0,0,1,426.41,96H408.19a1.39,1.39,0,0,1-1.35-1.69L427.72,2.08A1.38,1.38,0,0,1,429.08,1h25a1.38,1.38,0,0,1,1.35,1.07L476.87,94.3a1.39,1.39,0,0,1-1.35,1.7H456.89a1.38,1.38,0,0,1-1.36-1.13M435.83,63h11.81A1.39,1.39,0,0,0,449,61.35l-6.08-31.47a1.39,1.39,0,0,0-2.72,0l-6.09,31.47A1.39,1.39,0,0,0,435.48,63"/><path class="cls-2" d="M506.83,80h24.58a1.42,1.42,0,0,1,1.42,1.42V94.58A1.42,1.42,0,0,1,531.41,96H486.24a1.41,1.41,0,0,1-1.41-1.41V2.42A1.42,1.42,0,0,1,486.25,1h18.16a1.42,1.42,0,0,1,1.42,1.42V79a1.41,1.41,0,0,0,1.41,1.41"/><path class="cls-2" d="M559.83,1h20.12q18.88,0,18.88,16.43v62Q598.83,96,579.94,96H559.86q-19,0-19-16.58v-62q0-16.43,19-16.43m17,76V20.75Q576.83,17,573,17h-7.13q-4,0-4,3.75V77.24q0,3.76,4,3.76H573q3.86,0,3.86-3.76"/></g></g></svg>