<?xml version="1.0" standalone="no"?>
<!DOCTYPE svg PUBLIC "-//W3C//DTD SVG 20010904//EN"
 "http://www.w3.org/TR/2001/REC-SVG-20010904/DTD/svg10.dtd">
<svg version="1.0" xmlns="http://www.w3.org/2000/svg"
 width="521.000000pt" height="521.000000pt" viewBox="0 0 521.000000 521.000000"
 preserveAspectRatio="xMidYMid meet">
<metadata>
Created by potrace 1.11, written by Peter Selinger 2001-2013
</metadata>
<g transform="translate(0.000000,521.000000) scale(0.100000,-0.100000)"
fill="#000000" stroke="none">
<path d="M665 5195 c-160 -36 -300 -111 -410 -219 -87 -87 -113 -121 -163
-222 -42 -83 -67 -157 -79 -233 -4 -25 -8 -894 -8 -1931 l0 -1885 23 -78 c56
-197 177 -366 340 -476 79 -53 147 -84 259 -115 l88 -25 1880 0 c1959 0 1902
-1 2040 39 59 18 173 77 230 119 177 133 300 337 332 549 3 26 7 880 7 1897 0
1703 -1 1856 -17 1931 -70 335 -330 589 -667 653 -37 7 -676 10 -1925 9 -1525
0 -1881 -3 -1930 -13z m2215 -1217 c47 -10 114 -26 149 -35 36 -8 74 -17 85
-19 12 -2 71 -15 132 -29 126 -29 139 -39 193 -140 18 -32 69 -122 113 -198
67 -115 80 -144 75 -170 -3 -18 -48 -107 -101 -200 -53 -92 -96 -171 -96 -174
0 -4 45 -86 100 -183 55 -97 100 -187 100 -201 0 -20 -47 -110 -169 -323 -17
-31 -19 -41 -10 -53 12 -13 149 -131 301 -257 l59 -49 132 90 c73 50 158 108
189 129 l57 39 78 230 c42 127 94 281 114 343 l37 112 -110 168 c-164 248
-158 237 -162 296 -4 61 -12 79 -31 69 -25 -14 -175 -218 -175 -237 0 -37 29
-56 89 -57 l56 0 58 -90 c32 -49 55 -94 52 -100 -10 -15 -220 -9 -278 8 -95
28 -166 119 -175 226 -7 82 13 126 130 280 55 72 150 199 211 280 97 127 117
149 150 159 32 10 43 9 65 -4 62 -38 64 -44 65 -294 l2 -229 133 -206 c73
-114 136 -220 141 -235 6 -23 -17 -103 -115 -404 -68 -206 -131 -394 -140
-417 -14 -38 -34 -56 -196 -170 -100 -71 -204 -145 -232 -165 -85 -62 -125
-80 -161 -74 -42 8 -569 462 -578 498 -12 44 -7 62 47 157 29 53 68 123 86
156 18 33 40 72 48 87 15 26 15 31 -11 80 -15 29 -32 60 -37 68 -103 175 -134
238 -133 275 1 31 22 77 97 210 53 94 96 176 96 182 0 7 -37 77 -82 156 l-81
144 -141 33 c-78 18 -187 43 -244 57 l-103 25 -152 -53 c-83 -28 -296 -101
-472 -161 -176 -60 -331 -113 -345 -118 -14 -4 -178 -60 -365 -124 -187 -64
-402 -138 -479 -164 -114 -39 -140 -51 -147 -71 -5 -13 -7 -31 -5 -40 3 -9 8
-36 11 -61 3 -25 10 -70 15 -100 5 -30 11 -73 15 -95 3 -22 7 -51 10 -65 4
-26 9 -58 21 -145 3 -27 8 -59 10 -70 2 -11 7 -40 10 -65 3 -25 8 -54 10 -65
37 -197 46 -322 48 -660 l1 -350 87 -3 c49 -1 89 1 89 5 1 4 2 62 3 129 1 118
2 121 34 175 95 154 230 345 252 356 19 10 137 13 484 13 l459 -1 33 -33 c19
-19 34 -45 35 -57 0 -13 1 -150 2 -304 l2 -280 80 0 80 0 0 90 1 91 63 114
c83 149 106 191 149 270 52 97 62 105 154 124 l80 16 84 -77 c46 -41 81 -80
78 -84 -5 -9 -68 -28 -119 -36 -75 -12 -96 -26 -128 -88 -18 -33 -34 -62 -37
-65 -5 -5 -10 -13 -82 -150 l-46 -85 0 -138 c-1 -81 -5 -144 -11 -151 -6 -7
-9 -15 -6 -18 3 -2 -7 -15 -21 -29 -25 -24 -30 -24 -229 -27 -220 -3 -250 2
-277 51 -9 16 -13 106 -14 322 -1 165 -2 306 -3 313 -1 9 -80 12 -360 12
l-358 0 -91 -142 -90 -143 0 -130 c0 -228 2 -214 -38 -252 l-36 -34 -221 1
c-236 2 -263 6 -289 53 -9 16 -12 135 -13 467 -2 407 -5 479 -30 635 -3 17 -7
44 -10 60 -2 17 -7 48 -10 70 -3 22 -10 65 -15 95 -5 30 -11 72 -14 93 -7 44
-13 81 -31 202 -8 50 -17 110 -20 135 -3 25 -8 52 -10 60 -3 8 -7 35 -10 60
-3 25 -8 61 -10 80 -6 42 19 95 55 116 14 8 495 172 1070 364 780 260 1052
347 1075 343 16 -3 68 -14 115 -25z"/>
</g>
</svg>
