<svg xmlns="http://www.w3.org/2000/svg" viewBox="0 0 52.32 52.32"><defs><style>.cls-1{fill:none;stroke:#2e2e34;stroke-miterlimit:10;stroke-width:3px;}.cls-2{fill:#2e2e34;}</style></defs><title>Asset 6</title><g id="Layer_2" data-name="Layer 2"><g id="Layer_1-2" data-name="Layer 1"><rect class="cls-1" x="1.5" y="1.5" width="49.32" height="49.32" rx="8.69" ry="8.69"/><path class="cls-2" d="M40.8,18c-1.12-1.34-3.2-1.88-7.15-1.88H19.28c-4,0-6.16.58-7.28,2s-1.09,3.43-1.09,6.25V29.8c0,5.47,1.29,8.25,8.37,8.25H33.65c3.43,0,5.34-.48,6.57-1.66S42,33.22,42,29.8V24.42c0-3-.08-5-1.21-6.37m-9.92,9.81-6.53,3.41a1,1,0,0,1-1.47-.89v-6.8a1,1,0,0,1,1.47-.89l6.52,3.39a1,1,0,0,1,0,1.78"/></g></g></svg>